<?xml version="1.0" encoding="UTF-8"?>
<svg width="833px" height="187px" viewBox="0 0 833 187" version="1.1" xmlns="http://www.w3.org/2000/svg" xmlns:xlink="http://www.w3.org/1999/xlink">
    <!-- Generator: sketchtool 54.1 (76490) - https://sketchapp.com -->
    <title>733C9F68-8463-401B-8885-8ADD2C8A6057</title>
    <desc>Created with sketchtool.</desc>
    <defs>
        <polygon id="path-1" points="0 0.082626113 34.6958087 0.082626113 34.6958087 41.2869314 0 41.2869314"></polygon>
        <polygon id="path-3" points="0.519579867 0.127399668 18.4352259 0.127399668 18.4352259 18.7358831 0.519579867 18.7358831"></polygon>
    </defs>
    <g id="Page-1" stroke="none" stroke-width="1" fill="none" fill-rule="evenodd">
        <g id="style-guide" transform="translate(-303.000000, -198.000000)">
            <g id="TaxHawk-Official" transform="translate(303.000000, 197.500000)">
                <polygon id="Fill-1" fill="#333333" points="757.350094 128.922946 748.405011 137.05484 748.405011 164.703278 722.111888 164.703278 722.111888 58.4465343 748.405011 58.4465343 748.405011 110.490654 772.800692 86.6370991 802.89141 86.6370991 775.511324 112.932933 805.328267 164.703278 776.866639 164.703278"></polygon>
                <polygon id="Fill-2" fill="#333333" points="677.659163 132.446225 687.146372 86.6392676 713.168432 86.6392676 691.212319 164.702736 666.003448 164.702736 654.345023 119.435195 642.963083 164.702736 617.483149 164.702736 595.527036 86.6392676 622.904412 86.6392676 632.391621 132.446225 644.318399 87.1813938 665.732385 87.1813938"></polygon>
                <g id="Group-27" transform="translate(0.000000, 0.437942)">
                    <path d="M567.878598,133.906267 C567.878598,138.51434 566.523282,142.038161 563.812651,144.475018 C561.10202,146.917297 557.578199,148.001549 553.512252,148.001549 C550.801621,148.001549 548.633116,147.456712 547.006737,146.375171 C545.380359,145.290918 544.840943,143.390766 544.840943,140.953908 C544.840943,138.51434 545.922485,136.343124 547.822637,134.719456 C549.720079,133.093078 553.786026,132.277178 559.207289,132.008825 L567.881308,131.466699 L567.878598,133.906267 Z M592.000505,102.462945 C590.918963,98.6707716 588.750458,95.1442404 586.31089,92.4336092 C583.600259,89.7229779 580.076438,87.554473 575.736718,85.9280942 C571.402418,84.3017155 565.981156,83.7622999 559.204578,83.7622999 C548.630405,83.7622999 540.498512,85.6570311 534.266771,89.7229779 C528.300671,93.7889248 524.505788,100.026087 523.150472,108.157981 L547.27509,110.052712 C548.088279,104.905223 551.6121,102.465655 557.849262,102.465655 C560.828246,102.465655 562.996751,103.276134 564.894193,104.63145 C566.794345,105.986765 567.604824,108.697397 567.604824,112.763343 L567.604824,116.018811 L555.95182,116.560938 C550.801621,116.832001 545.919774,117.374127 541.314412,118.46109 C536.703628,119.271569 532.911455,120.897948 529.387634,122.79539 C526.134877,124.695542 523.424246,127.406173 521.524093,130.658931 C519.629362,133.908978 518.545109,137.974924 518.545109,142.582998 C518.545109,146.648944 519.358299,150.172765 520.713614,153.154459 C522.06893,156.136154 523.966372,158.575722 526.40594,160.475874 C528.845508,162.370606 531.556139,163.725921 534.808897,164.810174 C538.061654,165.897137 541.314412,166.165489 544.838232,166.165489 C549.985721,166.165489 554.325442,165.35501 558.117615,163.454858 C561.915209,161.557416 565.167967,159.120559 568.420724,155.594027 L568.420724,163.999695 L593.626884,163.999695 L593.626884,115.479396 C593.900658,110.865902 593.087468,106.528892 592.000505,102.462945 L592.000505,102.462945 Z" id="Fill-3" fill="#333333"></path>
                    <polygon id="Fill-5" fill="#333333" points="419.063859 58.0085926 447.525487 58.0085926 447.525487 96.499556 481.950504 96.499556 481.950504 58.0085926 510.412132 58.0085926 510.412132 164.265337 481.950504 164.265337 481.950504 122.250553 447.525487 122.250553 447.525487 164.265337 419.063859 164.265337"></polygon>
                    <polygon id="Fill-7" fill="#333333" points="376.506407 123.063742 403.073303 164.265337 373.795775 164.265337 360.516393 142.85135 347.231589 164.265337 319.043735 164.265337 346.150048 124.419058 321.480593 86.1991573 351.297536 86.1991573 362.413835 104.902513 374.069549 86.1991573 401.175861 86.1991573"></polygon>
                    <path d="M289.766207,133.906267 C289.766207,138.51434 288.410892,142.038161 285.70026,144.475018 C282.989629,146.917297 279.468519,148.001549 275.402572,148.001549 C272.691941,148.001549 270.520726,147.456712 268.897058,146.375171 C267.270679,145.290918 266.728553,143.390766 266.728553,140.953908 C266.728553,138.51434 267.810094,136.343124 269.712958,134.719456 C271.607689,133.093078 275.673636,132.277178 281.094898,132.008825 L289.771629,131.466699 L289.766207,133.906267 Z M313.890825,102.462945 C312.806573,98.6707716 310.638068,95.1442404 308.20121,92.4336092 C305.490579,89.7229779 301.964048,87.554473 297.627038,85.9280942 C293.292739,84.3017155 287.871476,83.7622999 281.094898,83.7622999 C270.520726,83.7622999 262.388832,85.6570311 256.15438,89.7229779 C249.922639,93.7889248 246.396108,100.026087 245.040792,108.157981 L269.16541,110.052712 C269.975889,104.905223 273.50242,102.465655 279.736872,102.465655 C282.718566,102.465655 284.88436,103.276134 286.784513,104.63145 C288.681955,105.986765 289.495144,108.697397 289.495144,112.763343 L289.495144,116.018811 L277.83943,116.560938 C272.689231,116.832001 267.810094,117.374127 263.202021,118.46109 C258.593948,119.271569 254.799064,120.897948 251.277955,122.79539 C247.751423,124.695542 245.311855,127.406173 243.414413,130.658931 C241.516971,133.908978 240.43543,137.974924 240.43543,142.582998 C240.43543,146.648944 241.245908,150.172765 242.601224,153.154459 C243.95654,156.136154 245.856692,158.575722 248.29355,160.475874 C250.733118,162.370606 253.443749,163.725921 256.699217,164.810174 C259.949264,165.897137 263.202021,166.165489 266.725842,166.165489 C271.876041,166.165489 276.213051,165.35501 280.007935,163.454858 C283.805529,161.557416 287.055576,159.120559 290.308334,155.594027 L290.308334,163.999695 L315.517204,163.999695 L315.517204,115.479396 C315.790978,110.865902 315.246141,106.528892 313.890825,102.462945 L313.890825,102.462945 Z" id="Fill-9" fill="#333333"></path>
                    <polygon id="Fill-11" fill="#333333" points="194.354157 82.4042736 163.721313 82.4042736 163.721313 58.0085926 253.445917 58.0085926 253.445917 82.4042736 222.815784 82.4042736 222.815784 164.265337 194.354157 164.265337"></polygon>
                    <path d="M56.3819428,77.2557007 C57.7372584,78.0661794 60.4478896,80.237395 61.261079,81.0478738 C62.0742683,81.8610631 63.9717102,82.6769631 64.7848996,83.2163787 C66.1402152,83.758505 68.5797833,84.8427575 69.9350989,85.1138206 C71.0166408,85.3875944 72.6457301,85.6586575 74.5404614,85.3875944 C76.4406139,85.1138206 81.8618763,83.2163787 82.672355,82.9480262 C83.7593182,82.6769631 85.3829863,82.1348369 87.0120756,82.1348369 C88.6384544,82.1348369 90.5358962,83.2163787 91.0780225,82.9480262 C91.6201487,82.6769631 90.5358962,81.0478738 90.2648331,80.5057475 C89.4516438,79.4242056 86.7410125,76.9846375 85.3856969,75.900385 C82.1329394,73.4608169 76.1722614,71.0185382 71.8325408,70.7501857 C67.7665939,70.4791226 56.3819428,71.8344382 52.8581222,72.1055013 C49.3343016,72.3738538 45.5394178,73.7291694 45.5394178,73.7291694 C50.9606803,75.084485 54.4845009,76.4398007 56.3819428,77.2557007" id="Fill-13" fill="#333333"></path>
                    <g id="Group-17" transform="translate(0.000000, 9.131894)">
                        <mask id="mask-2" fill="white">
                            <use xlink:href="#path-1"></use>
                        </mask>
                        <g id="Clip-16"></g>
                        <path d="M11.9265063,38.034174 C20.0584,35.865669 27.6508781,34.5103534 34.6958087,33.9682271 L34.6958087,15.8069979 L12.4686326,6.04872545 L-0.000271063123,0.082626113 L-0.000271063123,12.5542404 L-0.000271063123,41.2869314 C5.42370203,39.3894896 11.9265063,38.034174 11.9265063,38.034174" id="Fill-15" fill="#333333" mask="url(#mask-2)"></path>
                    </g>
                    <g id="Group-20" transform="translate(29.816944, 135.531561)" fill="#333333">
                        <path d="M81.0476027,29.5469647 L15.9924532,0.81156299 C12.7424063,3.25384173 9.76071199,5.69340983 7.32114389,8.40404106 C4.61051266,11.3857354 2.43929704,13.8253035 0.27079206,15.9910979 L81.0476027,51.5030776 L81.0476027,39.0314633 L81.0476027,30.8995696 L81.0476027,29.5469647 Z" id="Fill-18"></path>
                    </g>
                    <g id="Group-23" transform="translate(51.501993, 0.000000)" fill="#C82C27">
                        <path d="M13.8244903,46.6233993 C26.5644571,52.3184355 37.9463976,58.8212398 47.1652545,66.1426548 C50.689075,69.3927016 52.8548694,73.1902959 53.6707694,76.9851797 C53.6707694,76.4403428 54.7550219,76.1692797 56.6524638,76.9851797 C58.5499056,77.7956584 78.6058661,89.1830202 81.5902711,107.886376 C84.574676,126.587021 70.2056199,130.652967 70.2056199,129.026589 C70.2056199,127.402921 72.9162511,122.250011 70.7477461,119.271027 C68.5792412,116.286622 62.0737262,116.015559 57.19459,114.660243 C53.9418325,113.849764 33.3410352,117.641937 14.0982641,125.773831 L98.1278322,165.351758 L97.3119322,46.3523361 L0.274044817,0.271605249 L0.54510794,43.0995787 C5.42153352,43.6417049 9.75854349,44.9970205 13.8244903,46.6233993" id="Fill-21"></path>
                    </g>
                    <g id="Group-26" transform="translate(814.189369, 70.476412)">
                        <mask id="mask-4" fill="white">
                            <use xlink:href="#path-3"></use>
                        </mask>
                        <g id="Clip-25"></g>
                        <path d="M9.60561575,8.69570498 C10.35375,8.69570498 10.7982935,8.5845691 10.9419569,8.35416545 C11.0856204,8.12647243 11.1588074,7.84998804 11.1588074,7.53555482 C11.1588074,7.27804485 11.0585141,7.0395093 10.8579274,6.82536944 C10.65463,6.60851894 10.1531633,6.50009369 9.35081641,6.50009369 L8.05784532,6.50009369 L8.05784532,8.69570498 L9.60561575,8.69570498 Z M6.03300379,4.82221296 L9.35081641,4.82221296 C10.1531633,4.82221296 10.7982935,4.90082126 11.2889177,5.05803787 C11.7768314,5.21525449 12.1536091,5.41855183 12.4273829,5.66250864 C12.7038672,5.90646545 12.8881902,6.19379236 12.9884835,6.52177874 C13.0860662,6.85247575 13.1402789,7.18859402 13.1402789,7.53555482 C13.1402789,8.16713189 13.0318536,8.67401993 12.8177138,9.06435083 C12.5981526,9.4519711 12.2213749,9.76369369 11.676538,9.99138671 L13.5712692,13.6968196 L11.3322878,13.6968196 L9.69506658,10.4223771 L8.05784532,10.4223771 L8.05784532,13.6968196 L6.03300379,13.6968196 L6.03300379,4.82221296 Z M9.43755661,16.7083309 C11.4163174,16.7083309 13.0318536,16.0794645 14.2841652,14.8135997 C15.5310556,13.5504455 16.1545008,11.7560076 16.1545008,9.43028605 C16.1545008,7.10456445 15.5310556,5.31012658 14.2841652,4.04426179 C13.0318536,2.78110764 11.4163174,2.1522412 9.43755661,2.1522412 C7.45337455,2.1522412 5.8513915,2.78110764 4.63160744,4.04426179 C3.41453402,5.31012658 2.80193136,7.10456445 2.80193136,9.43028605 C2.80193136,11.7560076 3.41453402,13.5504455 4.63160744,14.8135997 C5.8513915,16.0794645 7.45337455,16.7083309 9.43755661,16.7083309 L9.43755661,16.7083309 Z M9.47550545,18.7358831 C8.1608493,18.7358831 6.94377588,18.5190326 5.83783834,18.0880422 C4.73461143,17.6570518 3.7858905,17.0390279 2.99709681,16.2366811 C2.20830312,15.4316236 1.5984111,14.4557963 1.16742073,13.3064887 C0.736430365,12.1598917 0.519579867,10.8669206 0.519579867,9.43028605 C0.519579867,7.99636213 0.74727289,6.70339103 1.2080802,5.55408339 C1.66617688,4.40748638 2.30588585,3.4289485 3.12449648,2.62660166 C3.94310711,1.82425482 4.89182804,1.20080963 5.96794864,0.775240532 C7.04406924,0.344250166 8.21506193,0.127399668 9.47550545,0.127399668 C10.8253998,0.127399668 12.0560264,0.344250166 13.1619639,0.775240532 C14.2651908,1.20080963 15.2084905,1.82425482 15.983731,2.62660166 C16.7589716,3.4289485 17.3607317,4.40748638 17.7917221,5.55408339 C18.2227124,6.70339103 18.4368523,7.99636213 18.4368523,9.43028605 C18.4368523,10.8669206 18.2091593,12.1598917 17.7510626,13.3064887 C17.2902553,14.4557963 16.6505463,15.4316236 15.8319357,16.2366811 C15.0106144,17.0390279 14.0591829,17.6570518 12.9667985,18.0880422 C11.8744141,18.5190326 10.7142639,18.7358831 9.47550545,18.7358831 L9.47550545,18.7358831 Z" id="Fill-24" fill="#333333" mask="url(#mask-4)"></path>
                    </g>
                </g>
            </g>
        </g>
    </g>
</svg>